solid OpenSCAD_Model
  facet normal -1 0 0
    outer loop
      vertex 16.9 61.7 25
      vertex 16.9 60.7 27.5
      vertex 16.9 61.7 27.5
    endloop
  endfacet
  facet normal -1 0 0
    outer loop
      vertex 16.9 59.5 25
      vertex 16.9 60.7 27.5
      vertex 16.9 61.7 25
    endloop
  endfacet
  facet normal -1 0 0
    outer loop
      vertex 16.9 59.5 32
      vertex 16.9 60.7 27.5
      vertex 16.9 59.5 25
    endloop
  endfacet
  facet normal -1 0 0
    outer loop
      vertex 16.9 60.7 27.5
      vertex 16.9 59.5 32
      vertex 16.9 60.7 32
    endloop
  endfacet
  facet normal 0 0 -1
    outer loop
      vertex 72.5 2.3 32
      vertex 57.9 59.5 32
      vertex 72.5 60.7 32
    endloop
  endfacet
  facet normal 0 0 -1
    outer loop
      vertex 42.8343 57 32
      vertex 57.9 59.5 32
      vertex 72.5 2.3 32
    endloop
  endfacet
  facet normal 0 0 -1
    outer loop
      vertex 42.8343 60.7 32
      vertex 48.9 59.5 32
      vertex 42.8343 57 32
    endloop
  endfacet
  facet normal -0 0 -1
    outer loop
      vertex 57.9 59.5 32
      vertex 42.8343 57 32
      vertex 48.9 59.5 32
    endloop
  endfacet
  facet normal 0 0 -1
    outer loop
      vertex 72.5 2.3 32
      vertex 31.9657 57 32
      vertex 42.8343 57 32
    endloop
  endfacet
  facet normal 0 0 -1
    outer loop
      vertex 31.9657 57 32
      vertex 25.9 59.5 32
      vertex 31.9657 60.7 32
    endloop
  endfacet
  facet normal 0 0 -1
    outer loop
      vertex 2.3 2.3 32
      vertex 31.9657 57 32
      vertex 72.5 2.3 32
    endloop
  endfacet
  facet normal 0 -0 -1
    outer loop
      vertex 16.9 59.5 32
      vertex 31.9657 57 32
      vertex 2.3 2.3 32
    endloop
  endfacet
  facet normal 0 0 -1
    outer loop
      vertex 31.9657 57 32
      vertex 16.9 59.5 32
      vertex 25.9 59.5 32
    endloop
  endfacet
  facet normal 0 0 -1
    outer loop
      vertex 2.3 60.7 32
      vertex 16.9 59.5 32
      vertex 2.3 2.3 32
    endloop
  endfacet
  facet normal 0 0 -1
    outer loop
      vertex 16.9 59.5 32
      vertex 2.3 60.7 32
      vertex 16.9 60.7 32
    endloop
  endfacet
  facet normal -0 0 -1
    outer loop
      vertex 72.5 60.7 32
      vertex 57.9 59.5 32
      vertex 57.9 60.7 32
    endloop
  endfacet
  facet normal 0 0 -1
    outer loop
      vertex 48.9 59.5 32
      vertex 42.8343 60.7 32
      vertex 48.9 60.7 32
    endloop
  endfacet
  facet normal -0 0 -1
    outer loop
      vertex 31.9657 60.7 32
      vertex 25.9 59.5 32
      vertex 25.9 60.7 32
    endloop
  endfacet
  facet normal 1 0 0
    outer loop
      vertex 25.9 60.7 32
      vertex 25.9 59.5 32
      vertex 25.9 60.7 27.5
    endloop
  endfacet
  facet normal 1 -0 0
    outer loop
      vertex 25.9 60.7 27.5
      vertex 25.9 61.7 25
      vertex 25.9 61.7 27.5
    endloop
  endfacet
  facet normal 1 0 0
    outer loop
      vertex 25.9 60.7 27.5
      vertex 25.9 59.5 25
      vertex 25.9 61.7 25
    endloop
  endfacet
  facet normal 1 0 0
    outer loop
      vertex 25.9 59.5 25
      vertex 25.9 60.7 27.5
      vertex 25.9 59.5 32
    endloop
  endfacet
  facet normal 0 0 -1
    outer loop
      vertex 16.9 59.5 25
      vertex 25.9 61.7 25
      vertex 25.9 59.5 25
    endloop
  endfacet
  facet normal -0 0 -1
    outer loop
      vertex 25.9 61.7 25
      vertex 16.9 59.5 25
      vertex 16.9 61.7 25
    endloop
  endfacet
  facet normal 0 -1 0
    outer loop
      vertex 16.9 59.5 25
      vertex 25.9 59.5 32
      vertex 16.9 59.5 32
    endloop
  endfacet
  facet normal 0 -1 -0
    outer loop
      vertex 25.9 59.5 32
      vertex 16.9 59.5 25
      vertex 25.9 59.5 25
    endloop
  endfacet
  facet normal 0 1 -0
    outer loop
      vertex 57.9 60.7 27.5
      vertex 48.9 60.7 32
      vertex 57.9 60.7 32
    endloop
  endfacet
  facet normal 0 1 0
    outer loop
      vertex 48.9 60.7 32
      vertex 57.9 60.7 27.5
      vertex 48.9 60.7 27.5
    endloop
  endfacet
  facet normal 0 1 -0
    outer loop
      vertex 57.9 60.7 32
      vertex 43.3508 60.7 34
      vertex 72.5 60.7 34
    endloop
  endfacet
  facet normal 0 1 -0
    outer loop
      vertex 48.9 60.7 32
      vertex 43.3508 60.7 34
      vertex 57.9 60.7 32
    endloop
  endfacet
  facet normal 0 1 0
    outer loop
      vertex 57.9 60.7 32
      vertex 72.5 60.7 34
      vertex 72.5 60.7 32
    endloop
  endfacet
  facet normal 0 1 0
    outer loop
      vertex 43.3508 60.7 34
      vertex 48.9 60.7 32
      vertex 43.2847 60.7 33.3295
    endloop
  endfacet
  facet normal 0 1 0
    outer loop
      vertex 43.2847 60.7 33.3295
      vertex 48.9 60.7 32
      vertex 42.9433 60.7 32.2039
    endloop
  endfacet
  facet normal 0 1 0
    outer loop
      vertex 42.9433 60.7 32.2039
      vertex 48.9 60.7 32
      vertex 42.8343 60.7 32
    endloop
  endfacet
  facet normal 0 1 -0
    outer loop
      vertex 25.9 60.7 27.5
      vertex 16.9 60.7 32
      vertex 25.9 60.7 32
    endloop
  endfacet
  facet normal 0 1 0
    outer loop
      vertex 16.9 60.7 32
      vertex 25.9 60.7 27.5
      vertex 16.9 60.7 27.5
    endloop
  endfacet
  facet normal 0 1 0
    outer loop
      vertex 25.9 60.7 32
      vertex 31.4492 60.7 34
      vertex 31.5153 60.7 33.3295
    endloop
  endfacet
  facet normal 0 1 0
    outer loop
      vertex 25.9 60.7 32
      vertex 31.5153 60.7 33.3295
      vertex 31.8567 60.7 32.2039
    endloop
  endfacet
  facet normal 0 1 0
    outer loop
      vertex 25.9 60.7 32
      vertex 31.8567 60.7 32.2039
      vertex 31.9657 60.7 32
    endloop
  endfacet
  facet normal 0 1 0
    outer loop
      vertex 31.4492 60.7 34
      vertex 25.9 60.7 32
      vertex 16.9 60.7 32
    endloop
  endfacet
  facet normal 0 1 0
    outer loop
      vertex 31.4492 60.7 34
      vertex 16.9 60.7 32
      vertex 2.3 60.7 34
    endloop
  endfacet
  facet normal 0 1 0
    outer loop
      vertex 2.3 60.7 34
      vertex 16.9 60.7 32
      vertex 2.3 60.7 32
    endloop
  endfacet
  facet normal -0 0 1
    outer loop
      vertex 16.9 61.7 27.5
      vertex 25.9 60.7 27.5
      vertex 25.9 61.7 27.5
    endloop
  endfacet
  facet normal 0 0 1
    outer loop
      vertex 25.9 60.7 27.5
      vertex 16.9 61.7 27.5
      vertex 16.9 60.7 27.5
    endloop
  endfacet
  facet normal 0 1 -0
    outer loop
      vertex 25.9 61.7 25
      vertex 16.9 61.7 27.5
      vertex 25.9 61.7 27.5
    endloop
  endfacet
  facet normal 0 1 0
    outer loop
      vertex 16.9 61.7 27.5
      vertex 25.9 61.7 25
      vertex 16.9 61.7 25
    endloop
  endfacet
  facet normal -1 0 0
    outer loop
      vertex 48.9 61.7 25
      vertex 48.9 60.7 27.5
      vertex 48.9 61.7 27.5
    endloop
  endfacet
  facet normal -1 0 0
    outer loop
      vertex 48.9 59.5 25
      vertex 48.9 60.7 27.5
      vertex 48.9 61.7 25
    endloop
  endfacet
  facet normal -1 0 0
    outer loop
      vertex 48.9 59.5 32
      vertex 48.9 60.7 27.5
      vertex 48.9 59.5 25
    endloop
  endfacet
  facet normal -1 0 0
    outer loop
      vertex 48.9 60.7 27.5
      vertex 48.9 59.5 32
      vertex 48.9 60.7 32
    endloop
  endfacet
  facet normal 1 0 0
    outer loop
      vertex 57.9 60.7 32
      vertex 57.9 59.5 32
      vertex 57.9 60.7 27.5
    endloop
  endfacet
  facet normal 1 -0 0
    outer loop
      vertex 57.9 60.7 27.5
      vertex 57.9 61.7 25
      vertex 57.9 61.7 27.5
    endloop
  endfacet
  facet normal 1 0 0
    outer loop
      vertex 57.9 60.7 27.5
      vertex 57.9 59.5 25
      vertex 57.9 61.7 25
    endloop
  endfacet
  facet normal 1 0 0
    outer loop
      vertex 57.9 59.5 25
      vertex 57.9 60.7 27.5
      vertex 57.9 59.5 32
    endloop
  endfacet
  facet normal 0 0 -1
    outer loop
      vertex 48.9 59.5 25
      vertex 57.9 61.7 25
      vertex 57.9 59.5 25
    endloop
  endfacet
  facet normal -0 0 -1
    outer loop
      vertex 57.9 61.7 25
      vertex 48.9 59.5 25
      vertex 48.9 61.7 25
    endloop
  endfacet
  facet normal 0 -1 0
    outer loop
      vertex 48.9 59.5 25
      vertex 57.9 59.5 32
      vertex 48.9 59.5 32
    endloop
  endfacet
  facet normal 0 -1 -0
    outer loop
      vertex 57.9 59.5 32
      vertex 48.9 59.5 25
      vertex 57.9 59.5 25
    endloop
  endfacet
  facet normal -0 0 1
    outer loop
      vertex 48.9 61.7 27.5
      vertex 57.9 60.7 27.5
      vertex 57.9 61.7 27.5
    endloop
  endfacet
  facet normal 0 0 1
    outer loop
      vertex 57.9 60.7 27.5
      vertex 48.9 61.7 27.5
      vertex 48.9 60.7 27.5
    endloop
  endfacet
  facet normal 0 1 -0
    outer loop
      vertex 57.9 61.7 25
      vertex 48.9 61.7 27.5
      vertex 57.9 61.7 27.5
    endloop
  endfacet
  facet normal 0 1 0
    outer loop
      vertex 48.9 61.7 27.5
      vertex 57.9 61.7 25
      vertex 48.9 61.7 25
    endloop
  endfacet
  facet normal -1 0 0
    outer loop
      vertex 2.3 60.7 32
      vertex 2.3 4.3 33
      vertex 2.3 60.7 34
    endloop
  endfacet
  facet normal -1 0 0
    outer loop
      vertex 2.3 2.3 32
      vertex 2.3 4.3 33
      vertex 2.3 60.7 32
    endloop
  endfacet
  facet normal -1 -0 0
    outer loop
      vertex 2.3 4.3 33
      vertex 2.3 2.3 32
      vertex 2.3 2.3 33
    endloop
  endfacet
  facet normal -1 -0 0
    outer loop
      vertex 2.3 60.7 34
      vertex 2.3 4.3 33
      vertex 2.3 4.3 34
    endloop
  endfacet
  facet normal 0 0 1
    outer loop
      vertex 31.4492 60.7 34
      vertex 2.3 60.7 34
      vertex 31.4492 57 34
    endloop
  endfacet
  facet normal 0 0 1
    outer loop
      vertex 43.3508 57 34
      vertex 72.5 60.7 34
      vertex 43.3508 60.7 34
    endloop
  endfacet
  facet normal 0 0 1
    outer loop
      vertex 72.5 60.7 34
      vertex 43.3508 57 34
      vertex 72.5 4.3 34
    endloop
  endfacet
  facet normal -0 0 1
    outer loop
      vertex 31.4492 57 34
      vertex 72.5 4.3 34
      vertex 43.3508 57 34
    endloop
  endfacet
  facet normal 0 0 1
    outer loop
      vertex 2.3 4.3 34
      vertex 31.4492 57 34
      vertex 2.3 60.7 34
    endloop
  endfacet
  facet normal 0 0 1
    outer loop
      vertex 31.4492 57 34
      vertex 2.3 4.3 34
      vertex 72.5 4.3 34
    endloop
  endfacet
  facet normal 1 0 0
    outer loop
      vertex 72.5 4.3 33
      vertex 72.5 60.7 34
      vertex 72.5 4.3 34
    endloop
  endfacet
  facet normal 1 0 0
    outer loop
      vertex 72.5 60.7 34
      vertex 72.5 4.3 33
      vertex 72.5 60.7 32
    endloop
  endfacet
  facet normal 1 0 0
    outer loop
      vertex 72.5 2.3 32
      vertex 72.5 4.3 33
      vertex 72.5 2.3 33
    endloop
  endfacet
  facet normal 1 0 0
    outer loop
      vertex 72.5 4.3 33
      vertex 72.5 2.3 32
      vertex 72.5 60.7 32
    endloop
  endfacet
  facet normal 0 -1 0
    outer loop
      vertex 2.3 2.3 32
      vertex 72.5 2.3 33
      vertex 2.3 2.3 33
    endloop
  endfacet
  facet normal 0 -1 -0
    outer loop
      vertex 72.5 2.3 33
      vertex 2.3 2.3 32
      vertex 72.5 2.3 32
    endloop
  endfacet
  facet normal -0 0 1
    outer loop
      vertex 2.3 4.3 33
      vertex 72.5 2.3 33
      vertex 72.5 4.3 33
    endloop
  endfacet
  facet normal 0 0 1
    outer loop
      vertex 72.5 2.3 33
      vertex 2.3 4.3 33
      vertex 2.3 2.3 33
    endloop
  endfacet
  facet normal 0 -1 0
    outer loop
      vertex 2.3 4.3 33
      vertex 72.5 4.3 34
      vertex 2.3 4.3 34
    endloop
  endfacet
  facet normal 0 -1 -0
    outer loop
      vertex 72.5 4.3 34
      vertex 2.3 4.3 33
      vertex 72.5 4.3 33
    endloop
  endfacet
  facet normal -0.995176 0 0.0981076
    outer loop
      vertex 43.2847 57 33.3295
      vertex 43.3508 60.7 34
      vertex 43.2847 60.7 33.3295
    endloop
  endfacet
  facet normal -0.995176 0 0.0981076
    outer loop
      vertex 43.3508 60.7 34
      vertex 43.2847 57 33.3295
      vertex 43.3508 57 34
    endloop
  endfacet
  facet normal 0.995176 -0 0.0981076
    outer loop
      vertex 31.4492 57 34
      vertex 31.5153 60.7 33.3295
      vertex 31.4492 60.7 34
    endloop
  endfacet
  facet normal 0.995176 0 0.0981076
    outer loop
      vertex 31.5153 60.7 33.3295
      vertex 31.4492 57 34
      vertex 31.5153 57 33.3295
    endloop
  endfacet
  facet normal -0.881898 0 0.471441
    outer loop
      vertex 42.8343 57 32
      vertex 42.9433 60.7 32.2039
      vertex 42.8343 60.7 32
    endloop
  endfacet
  facet normal -0.881898 0 0.471441
    outer loop
      vertex 42.9433 60.7 32.2039
      vertex 42.8343 57 32
      vertex 42.9433 57 32.2039
    endloop
  endfacet
  facet normal 0 1 0
    outer loop
      vertex 42.8343 57 32
      vertex 43.3508 57 34
      vertex 43.2847 57 33.3295
    endloop
  endfacet
  facet normal 0 1 0
    outer loop
      vertex 43.3508 57 34
      vertex 42.8343 57 32
      vertex 31.4492 57 34
    endloop
  endfacet
  facet normal 0 1 0
    outer loop
      vertex 42.8343 57 32
      vertex 43.2847 57 33.3295
      vertex 42.9433 57 32.2039
    endloop
  endfacet
  facet normal 0 1 -0
    outer loop
      vertex 31.9657 57 32
      vertex 31.4492 57 34
      vertex 42.8343 57 32
    endloop
  endfacet
  facet normal 0 1 0
    outer loop
      vertex 31.4492 57 34
      vertex 31.9657 57 32
      vertex 31.5153 57 33.3295
    endloop
  endfacet
  facet normal 0 1 0
    outer loop
      vertex 31.5153 57 33.3295
      vertex 31.9657 57 32
      vertex 31.8567 57 32.2039
    endloop
  endfacet
  facet normal -0.956951 0 0.290248
    outer loop
      vertex 42.9433 57 32.2039
      vertex 43.2847 60.7 33.3295
      vertex 42.9433 60.7 32.2039
    endloop
  endfacet
  facet normal -0.956951 0 0.290248
    outer loop
      vertex 43.2847 60.7 33.3295
      vertex 42.9433 57 32.2039
      vertex 43.2847 57 33.3295
    endloop
  endfacet
  facet normal 0.956951 -0 0.290248
    outer loop
      vertex 31.5153 57 33.3295
      vertex 31.8567 60.7 32.2039
      vertex 31.5153 60.7 33.3295
    endloop
  endfacet
  facet normal 0.956951 0 0.290248
    outer loop
      vertex 31.8567 60.7 32.2039
      vertex 31.5153 57 33.3295
      vertex 31.8567 57 32.2039
    endloop
  endfacet
  facet normal 0.881898 -0 0.471441
    outer loop
      vertex 31.8567 57 32.2039
      vertex 31.9657 60.7 32
      vertex 31.8567 60.7 32.2039
    endloop
  endfacet
  facet normal 0.881898 0 0.471441
    outer loop
      vertex 31.9657 60.7 32
      vertex 31.8567 57 32.2039
      vertex 31.9657 57 32
    endloop
  endfacet
endsolid OpenSCAD_Model
