solid OpenSCAD_Model
  facet normal -1 0 0
    outer loop
      vertex 2.4 2.4 10.5
      vertex 2.4 60.6 12
      vertex 2.4 60.6 10.5
    endloop
  endfacet
  facet normal -1 -0 0
    outer loop
      vertex 2.4 60.6 12
      vertex 2.4 2.4 10.5
      vertex 2.4 2.4 12
    endloop
  endfacet
  facet normal 0 0 1
    outer loop
      vertex 69.4 56 12
      vertex 44.4 31.5 12
      vertex 69.4 7 12
    endloop
  endfacet
  facet normal 0 0 1
    outer loop
      vertex 69.4 56 12
      vertex 44.2655 32.8656 12
      vertex 44.4 31.5 12
    endloop
  endfacet
  facet normal 0 0 1
    outer loop
      vertex 69.4 56 12
      vertex 43.8672 34.1788 12
      vertex 44.2655 32.8656 12
    endloop
  endfacet
  facet normal 0 0 1
    outer loop
      vertex 69.4 56 12
      vertex 43.2203 35.389 12
      vertex 43.8672 34.1788 12
    endloop
  endfacet
  facet normal 0 0 1
    outer loop
      vertex 69.4 56 12
      vertex 42.3497 36.4497 12
      vertex 43.2203 35.389 12
    endloop
  endfacet
  facet normal 0 0 1
    outer loop
      vertex 69.4 56 12
      vertex 41.289 37.3203 12
      vertex 42.3497 36.4497 12
    endloop
  endfacet
  facet normal 0 0 1
    outer loop
      vertex 69.4 56 12
      vertex 40.0788 37.9672 12
      vertex 41.289 37.3203 12
    endloop
  endfacet
  facet normal 0 0 1
    outer loop
      vertex 69.4 56 12
      vertex 38.7656 38.3655 12
      vertex 40.0788 37.9672 12
    endloop
  endfacet
  facet normal 0 0 1
    outer loop
      vertex 69.4 56 12
      vertex 37.4 38.5 12
      vertex 38.7656 38.3655 12
    endloop
  endfacet
  facet normal -0 0 1
    outer loop
      vertex 5.4 56 12
      vertex 37.4 38.5 12
      vertex 69.4 56 12
    endloop
  endfacet
  facet normal 0 0 1
    outer loop
      vertex 37.4 38.5 12
      vertex 5.4 56 12
      vertex 36.0344 38.3655 12
    endloop
  endfacet
  facet normal 0 0 1
    outer loop
      vertex 5.4 56 12
      vertex 30.4 31.5 12
      vertex 30.5345 32.8656 12
    endloop
  endfacet
  facet normal 0 0 1
    outer loop
      vertex 5.4 56 12
      vertex 30.5345 32.8656 12
      vertex 30.9328 34.1788 12
    endloop
  endfacet
  facet normal 0 0 1
    outer loop
      vertex 5.4 56 12
      vertex 30.9328 34.1788 12
      vertex 31.5797 35.389 12
    endloop
  endfacet
  facet normal 0 0 1
    outer loop
      vertex 30.4 31.5 12
      vertex 7 7.4 12
      vertex 15 7.4 12
    endloop
  endfacet
  facet normal 0 0 1
    outer loop
      vertex 5.4 56 12
      vertex 31.5797 35.389 12
      vertex 32.4503 36.4497 12
    endloop
  endfacet
  facet normal 0 0 1
    outer loop
      vertex 36.0344 38.3655 12
      vertex 5.4 56 12
      vertex 34.7212 37.9672 12
    endloop
  endfacet
  facet normal 0 0 1
    outer loop
      vertex 5.4 56 12
      vertex 33.511 37.3203 12
      vertex 34.7212 37.9672 12
    endloop
  endfacet
  facet normal 0 0 1
    outer loop
      vertex 5.4 56 12
      vertex 32.4503 36.4497 12
      vertex 33.511 37.3203 12
    endloop
  endfacet
  facet normal 0 0 1
    outer loop
      vertex 30.4 31.5 12
      vertex 5.4 56 12
      vertex 7 7.4 12
    endloop
  endfacet
  facet normal 0 0 1
    outer loop
      vertex 5.4 7 12
      vertex 7 7.4 12
      vertex 5.4 56 12
    endloop
  endfacet
  facet normal 0 0 1
    outer loop
      vertex 7 7.4 12
      vertex 5.4 7 12
      vertex 7 7 12
    endloop
  endfacet
  facet normal 0 0 1
    outer loop
      vertex 69.4 56 12
      vertex 72.4 60.6 12
      vertex 69.4 57.5 12
    endloop
  endfacet
  facet normal 0 0 1
    outer loop
      vertex 72.4 60.6 12
      vertex 5.4 57.5 12
      vertex 69.4 57.5 12
    endloop
  endfacet
  facet normal 0 0 1
    outer loop
      vertex 2.4 60.6 12
      vertex 5.4 56 12
      vertex 5.4 57.5 12
    endloop
  endfacet
  facet normal 0 0 1
    outer loop
      vertex 5.4 56 12
      vertex 2.4 60.6 12
      vertex 5.4 7 12
    endloop
  endfacet
  facet normal 0 0 1
    outer loop
      vertex 2.4 2.4 12
      vertex 5.4 7 12
      vertex 2.4 60.6 12
    endloop
  endfacet
  facet normal -0 0 1
    outer loop
      vertex 2.4 60.6 12
      vertex 5.4 57.5 12
      vertex 72.4 60.6 12
    endloop
  endfacet
  facet normal 0 0 1
    outer loop
      vertex 72.4 60.6 12
      vertex 69.4 56 12
      vertex 72.4 2.4 12
    endloop
  endfacet
  facet normal -0 0 1
    outer loop
      vertex 69.4 7 12
      vertex 72.4 2.4 12
      vertex 69.4 56 12
    endloop
  endfacet
  facet normal -0 0 1
    outer loop
      vertex 69.4 5.5 12
      vertex 72.4 2.4 12
      vertex 69.4 7 12
    endloop
  endfacet
  facet normal 0 0 1
    outer loop
      vertex 15 2.4 12
      vertex 69.4 5.5 12
      vertex 15 5.5 12
    endloop
  endfacet
  facet normal 0 0 1
    outer loop
      vertex 69.4 5.5 12
      vertex 15 2.4 12
      vertex 72.4 2.4 12
    endloop
  endfacet
  facet normal -0 0 1
    outer loop
      vertex 44.2655 30.1344 12
      vertex 69.4 7 12
      vertex 44.4 31.5 12
    endloop
  endfacet
  facet normal -0 0 1
    outer loop
      vertex 43.8672 28.8212 12
      vertex 69.4 7 12
      vertex 44.2655 30.1344 12
    endloop
  endfacet
  facet normal -0 0 1
    outer loop
      vertex 43.2203 27.611 12
      vertex 69.4 7 12
      vertex 43.8672 28.8212 12
    endloop
  endfacet
  facet normal -0 0 1
    outer loop
      vertex 42.3497 26.5503 12
      vertex 69.4 7 12
      vertex 43.2203 27.611 12
    endloop
  endfacet
  facet normal -0 0 1
    outer loop
      vertex 41.289 25.6797 12
      vertex 69.4 7 12
      vertex 42.3497 26.5503 12
    endloop
  endfacet
  facet normal -0 0 1
    outer loop
      vertex 40.0788 25.0328 12
      vertex 69.4 7 12
      vertex 41.289 25.6797 12
    endloop
  endfacet
  facet normal -0 0 1
    outer loop
      vertex 38.7656 24.6345 12
      vertex 69.4 7 12
      vertex 40.0788 25.0328 12
    endloop
  endfacet
  facet normal 0 0 1
    outer loop
      vertex 15 7 12
      vertex 38.7656 24.6345 12
      vertex 37.4 24.5 12
    endloop
  endfacet
  facet normal 0 0 1
    outer loop
      vertex 15 7 12
      vertex 37.4 24.5 12
      vertex 36.0344 24.6345 12
    endloop
  endfacet
  facet normal 0 0 1
    outer loop
      vertex 15 7.4 12
      vertex 36.0344 24.6345 12
      vertex 34.7212 25.0328 12
    endloop
  endfacet
  facet normal 0 0 1
    outer loop
      vertex 15 7.4 12
      vertex 30.5345 30.1344 12
      vertex 30.4 31.5 12
    endloop
  endfacet
  facet normal 0 0 1
    outer loop
      vertex 15 7.4 12
      vertex 30.9328 28.8212 12
      vertex 30.5345 30.1344 12
    endloop
  endfacet
  facet normal 0 0 1
    outer loop
      vertex 15 7.4 12
      vertex 31.5797 27.611 12
      vertex 30.9328 28.8212 12
    endloop
  endfacet
  facet normal 0 0 1
    outer loop
      vertex 15 7.4 12
      vertex 32.4503 26.5503 12
      vertex 31.5797 27.611 12
    endloop
  endfacet
  facet normal 0 0 1
    outer loop
      vertex 15 7.4 12
      vertex 33.511 25.6797 12
      vertex 32.4503 26.5503 12
    endloop
  endfacet
  facet normal 0 0 1
    outer loop
      vertex 15 7.4 12
      vertex 34.7212 25.0328 12
      vertex 33.511 25.6797 12
    endloop
  endfacet
  facet normal 0 0 1
    outer loop
      vertex 36.0344 24.6345 12
      vertex 15 7.4 12
      vertex 15 7 12
    endloop
  endfacet
  facet normal 0 0 1
    outer loop
      vertex 38.7656 24.6345 12
      vertex 15 7 12
      vertex 69.4 7 12
    endloop
  endfacet
  facet normal -0 0 1
    outer loop
      vertex 5.4 5.5 12
      vertex 7 2.4 12
      vertex 7 5.5 12
    endloop
  endfacet
  facet normal 0 0 1
    outer loop
      vertex 5.4 5.5 12
      vertex 2.4 2.4 12
      vertex 7 2.4 12
    endloop
  endfacet
  facet normal 0 0 1
    outer loop
      vertex 5.4 7 12
      vertex 2.4 2.4 12
      vertex 5.4 5.5 12
    endloop
  endfacet
  facet normal 1 -0 0
    outer loop
      vertex 72.4 2.4 12
      vertex 72.4 60.6 10.5
      vertex 72.4 60.6 12
    endloop
  endfacet
  facet normal 1 0 0
    outer loop
      vertex 72.4 60.6 10.5
      vertex 72.4 2.4 12
      vertex 72.4 2.4 10.5
    endloop
  endfacet
  facet normal 0 1 -0
    outer loop
      vertex 72.4 60.6 10.5
      vertex 2.4 60.6 12
      vertex 72.4 60.6 12
    endloop
  endfacet
  facet normal 0 1 0
    outer loop
      vertex 2.4 60.6 12
      vertex 72.4 60.6 10.5
      vertex 2.4 60.6 10.5
    endloop
  endfacet
  facet normal 0 0 -1
    outer loop
      vertex 7 2.4 10.5
      vertex 2.4 2.4 10.5
      vertex 7 7.4 10.5
    endloop
  endfacet
  facet normal 0 0 -1
    outer loop
      vertex 72.4 2.4 10.5
      vertex 44.4 31.5 10.5
      vertex 72.4 60.6 10.5
    endloop
  endfacet
  facet normal 0 0 -1
    outer loop
      vertex 72.4 2.4 10.5
      vertex 44.2655 30.1344 10.5
      vertex 44.4 31.5 10.5
    endloop
  endfacet
  facet normal 0 0 -1
    outer loop
      vertex 72.4 2.4 10.5
      vertex 43.8672 28.8212 10.5
      vertex 44.2655 30.1344 10.5
    endloop
  endfacet
  facet normal 0 0 -1
    outer loop
      vertex 72.4 2.4 10.5
      vertex 43.2203 27.611 10.5
      vertex 43.8672 28.8212 10.5
    endloop
  endfacet
  facet normal 0 0 -1
    outer loop
      vertex 72.4 2.4 10.5
      vertex 42.3497 26.5503 10.5
      vertex 43.2203 27.611 10.5
    endloop
  endfacet
  facet normal 0 0 -1
    outer loop
      vertex 72.4 2.4 10.5
      vertex 41.289 25.6797 10.5
      vertex 42.3497 26.5503 10.5
    endloop
  endfacet
  facet normal 0 0 -1
    outer loop
      vertex 72.4 2.4 10.5
      vertex 40.0788 25.0328 10.5
      vertex 41.289 25.6797 10.5
    endloop
  endfacet
  facet normal 0 0 -1
    outer loop
      vertex 72.4 2.4 10.5
      vertex 38.7656 24.6345 10.5
      vertex 40.0788 25.0328 10.5
    endloop
  endfacet
  facet normal 0 0 -1
    outer loop
      vertex 15 2.4 10.5
      vertex 38.7656 24.6345 10.5
      vertex 72.4 2.4 10.5
    endloop
  endfacet
  facet normal 0 0 -1
    outer loop
      vertex 38.7656 24.6345 10.5
      vertex 15 2.4 10.5
      vertex 37.4 24.5 10.5
    endloop
  endfacet
  facet normal -0 0 -1
    outer loop
      vertex 37.4 24.5 10.5
      vertex 15 2.4 10.5
      vertex 36.0344 24.6345 10.5
    endloop
  endfacet
  facet normal 0 0 -1
    outer loop
      vertex 15 7.4 10.5
      vertex 36.0344 24.6345 10.5
      vertex 15 2.4 10.5
    endloop
  endfacet
  facet normal -0 0 -1
    outer loop
      vertex 30.9328 28.8212 10.5
      vertex 15 7.4 10.5
      vertex 30.5345 30.1344 10.5
    endloop
  endfacet
  facet normal -0 0 -1
    outer loop
      vertex 31.5797 27.611 10.5
      vertex 15 7.4 10.5
      vertex 30.9328 28.8212 10.5
    endloop
  endfacet
  facet normal -0 0 -1
    outer loop
      vertex 32.4503 26.5503 10.5
      vertex 15 7.4 10.5
      vertex 31.5797 27.611 10.5
    endloop
  endfacet
  facet normal -0 0 -1
    outer loop
      vertex 33.511 25.6797 10.5
      vertex 15 7.4 10.5
      vertex 32.4503 26.5503 10.5
    endloop
  endfacet
  facet normal -0 0 -1
    outer loop
      vertex 34.7212 25.0328 10.5
      vertex 15 7.4 10.5
      vertex 33.511 25.6797 10.5
    endloop
  endfacet
  facet normal -0 0 -1
    outer loop
      vertex 36.0344 24.6345 10.5
      vertex 15 7.4 10.5
      vertex 34.7212 25.0328 10.5
    endloop
  endfacet
  facet normal 0 0 -1
    outer loop
      vertex 44.2655 32.8656 10.5
      vertex 72.4 60.6 10.5
      vertex 44.4 31.5 10.5
    endloop
  endfacet
  facet normal 0 0 -1
    outer loop
      vertex 43.8672 34.1788 10.5
      vertex 72.4 60.6 10.5
      vertex 44.2655 32.8656 10.5
    endloop
  endfacet
  facet normal 0 0 -1
    outer loop
      vertex 43.2203 35.389 10.5
      vertex 72.4 60.6 10.5
      vertex 43.8672 34.1788 10.5
    endloop
  endfacet
  facet normal 0 0 -1
    outer loop
      vertex 42.3497 36.4497 10.5
      vertex 72.4 60.6 10.5
      vertex 43.2203 35.389 10.5
    endloop
  endfacet
  facet normal 0 0 -1
    outer loop
      vertex 41.289 37.3203 10.5
      vertex 72.4 60.6 10.5
      vertex 42.3497 36.4497 10.5
    endloop
  endfacet
  facet normal 0 0 -1
    outer loop
      vertex 40.0788 37.9672 10.5
      vertex 72.4 60.6 10.5
      vertex 41.289 37.3203 10.5
    endloop
  endfacet
  facet normal 0 0 -1
    outer loop
      vertex 38.7656 38.3655 10.5
      vertex 72.4 60.6 10.5
      vertex 40.0788 37.9672 10.5
    endloop
  endfacet
  facet normal 0 0 -1
    outer loop
      vertex 37.4 38.5 10.5
      vertex 72.4 60.6 10.5
      vertex 38.7656 38.3655 10.5
    endloop
  endfacet
  facet normal 0 0 -1
    outer loop
      vertex 2.4 60.6 10.5
      vertex 37.4 38.5 10.5
      vertex 36.0344 38.3655 10.5
    endloop
  endfacet
  facet normal 0 0 -1
    outer loop
      vertex 2.4 60.6 10.5
      vertex 36.0344 38.3655 10.5
      vertex 34.7212 37.9672 10.5
    endloop
  endfacet
  facet normal 0 0 -1
    outer loop
      vertex 2.4 60.6 10.5
      vertex 34.7212 37.9672 10.5
      vertex 33.511 37.3203 10.5
    endloop
  endfacet
  facet normal 0 0 -1
    outer loop
      vertex 7 7.4 10.5
      vertex 30.5345 30.1344 10.5
      vertex 15 7.4 10.5
    endloop
  endfacet
  facet normal -0 0 -1
    outer loop
      vertex 30.5345 30.1344 10.5
      vertex 7 7.4 10.5
      vertex 30.4 31.5 10.5
    endloop
  endfacet
  facet normal 0 0 -1
    outer loop
      vertex 2.4 60.6 10.5
      vertex 30.4 31.5 10.5
      vertex 7 7.4 10.5
    endloop
  endfacet
  facet normal 0 0 -1
    outer loop
      vertex 30.4 31.5 10.5
      vertex 2.4 60.6 10.5
      vertex 30.5345 32.8656 10.5
    endloop
  endfacet
  facet normal 0 0 -1
    outer loop
      vertex 30.5345 32.8656 10.5
      vertex 2.4 60.6 10.5
      vertex 30.9328 34.1788 10.5
    endloop
  endfacet
  facet normal 0 0 -1
    outer loop
      vertex 30.9328 34.1788 10.5
      vertex 2.4 60.6 10.5
      vertex 31.5797 35.389 10.5
    endloop
  endfacet
  facet normal 0 0 -1
    outer loop
      vertex 2.4 60.6 10.5
      vertex 7 7.4 10.5
      vertex 2.4 2.4 10.5
    endloop
  endfacet
  facet normal 0 0 -1
    outer loop
      vertex 37.4 38.5 10.5
      vertex 2.4 60.6 10.5
      vertex 72.4 60.6 10.5
    endloop
  endfacet
  facet normal 0 0 -1
    outer loop
      vertex 32.4503 36.4497 10.5
      vertex 2.4 60.6 10.5
      vertex 33.511 37.3203 10.5
    endloop
  endfacet
  facet normal 0 0 -1
    outer loop
      vertex 31.5797 35.389 10.5
      vertex 2.4 60.6 10.5
      vertex 32.4503 36.4497 10.5
    endloop
  endfacet
  facet normal 0 -1 0
    outer loop
      vertex 15 2.4 10.5
      vertex 72.4 2.4 12
      vertex 15 2.4 12
    endloop
  endfacet
  facet normal 0 -1 -0
    outer loop
      vertex 72.4 2.4 12
      vertex 15 2.4 10.5
      vertex 72.4 2.4 10.5
    endloop
  endfacet
  facet normal 0 -1 0
    outer loop
      vertex 2.4 2.4 10.5
      vertex 7 2.4 12
      vertex 2.4 2.4 12
    endloop
  endfacet
  facet normal 0 -1 -0
    outer loop
      vertex 7 2.4 12
      vertex 2.4 2.4 10.5
      vertex 7 2.4 10.5
    endloop
  endfacet
  facet normal -1 0 0
    outer loop
      vertex 5.4 5.5 12
      vertex 5.4 7 15
      vertex 5.4 7 12
    endloop
  endfacet
  facet normal -1 -0 0
    outer loop
      vertex 5.4 7 15
      vertex 5.4 5.5 12
      vertex 5.4 5.5 15
    endloop
  endfacet
  facet normal -0 0 1
    outer loop
      vertex 5.4 7 15
      vertex 69.4 5.5 15
      vertex 69.4 7 15
    endloop
  endfacet
  facet normal 0 0 1
    outer loop
      vertex 69.4 5.5 15
      vertex 5.4 7 15
      vertex 5.4 5.5 15
    endloop
  endfacet
  facet normal 1 -0 0
    outer loop
      vertex 69.4 5.5 15
      vertex 69.4 7 12
      vertex 69.4 7 15
    endloop
  endfacet
  facet normal 1 0 0
    outer loop
      vertex 69.4 7 12
      vertex 69.4 5.5 15
      vertex 69.4 5.5 12
    endloop
  endfacet
  facet normal 0 1 0
    outer loop
      vertex 69.4 7 15
      vertex 15 7 13
      vertex 5.4 7 15
    endloop
  endfacet
  facet normal 0 1 -0
    outer loop
      vertex 69.4 7 12
      vertex 15 7 13
      vertex 69.4 7 15
    endloop
  endfacet
  facet normal 0 1 0
    outer loop
      vertex 15 7 13
      vertex 69.4 7 12
      vertex 15 7 12
    endloop
  endfacet
  facet normal 0 1 -0
    outer loop
      vertex 7 7 13
      vertex 5.4 7 15
      vertex 15 7 13
    endloop
  endfacet
  facet normal 0 1 0
    outer loop
      vertex 5.4 7 12
      vertex 7 7 13
      vertex 7 7 12
    endloop
  endfacet
  facet normal 0 1 0
    outer loop
      vertex 7 7 13
      vertex 5.4 7 12
      vertex 5.4 7 15
    endloop
  endfacet
  facet normal 0 -1 0
    outer loop
      vertex 15 5.5 13
      vertex 5.4 5.5 15
      vertex 7 5.5 13
    endloop
  endfacet
  facet normal 0 -1 0
    outer loop
      vertex 5.4 5.5 12
      vertex 7 5.5 13
      vertex 5.4 5.5 15
    endloop
  endfacet
  facet normal 0 -1 -0
    outer loop
      vertex 7 5.5 13
      vertex 5.4 5.5 12
      vertex 7 5.5 12
    endloop
  endfacet
  facet normal 0 -1 0
    outer loop
      vertex 5.4 5.5 15
      vertex 15 5.5 13
      vertex 69.4 5.5 15
    endloop
  endfacet
  facet normal 0 -1 0
    outer loop
      vertex 69.4 5.5 12
      vertex 15 5.5 13
      vertex 15 5.5 12
    endloop
  endfacet
  facet normal 0 -1 0
    outer loop
      vertex 15 5.5 13
      vertex 69.4 5.5 12
      vertex 69.4 5.5 15
    endloop
  endfacet
  facet normal -1 0 0
    outer loop
      vertex 5.4 56 12
      vertex 5.4 57.5 15
      vertex 5.4 57.5 12
    endloop
  endfacet
  facet normal -1 -0 0
    outer loop
      vertex 5.4 57.5 15
      vertex 5.4 56 12
      vertex 5.4 56 15
    endloop
  endfacet
  facet normal -0 0 1
    outer loop
      vertex 5.4 57.5 15
      vertex 69.4 56 15
      vertex 69.4 57.5 15
    endloop
  endfacet
  facet normal 0 0 1
    outer loop
      vertex 69.4 56 15
      vertex 5.4 57.5 15
      vertex 5.4 56 15
    endloop
  endfacet
  facet normal 1 -0 0
    outer loop
      vertex 69.4 56 15
      vertex 69.4 57.5 12
      vertex 69.4 57.5 15
    endloop
  endfacet
  facet normal 1 0 0
    outer loop
      vertex 69.4 57.5 12
      vertex 69.4 56 15
      vertex 69.4 56 12
    endloop
  endfacet
  facet normal 0 1 -0
    outer loop
      vertex 69.4 57.5 12
      vertex 5.4 57.5 15
      vertex 69.4 57.5 15
    endloop
  endfacet
  facet normal 0 1 0
    outer loop
      vertex 5.4 57.5 15
      vertex 69.4 57.5 12
      vertex 5.4 57.5 12
    endloop
  endfacet
  facet normal 0 -1 0
    outer loop
      vertex 5.4 56 12
      vertex 69.4 56 15
      vertex 5.4 56 15
    endloop
  endfacet
  facet normal 0 -1 -0
    outer loop
      vertex 69.4 56 15
      vertex 5.4 56 12
      vertex 69.4 56 12
    endloop
  endfacet
  facet normal 1 0 0
    outer loop
      vertex 7 7 13
      vertex 7 5.5 13
      vertex 7 7 12
    endloop
  endfacet
  facet normal 1 -0 0
    outer loop
      vertex 7 7 12
      vertex 7 7.4 10.5
      vertex 7 7.4 12
    endloop
  endfacet
  facet normal 1 0 0
    outer loop
      vertex 7 5.5 12
      vertex 7 7 12
      vertex 7 5.5 13
    endloop
  endfacet
  facet normal 1 0 0
    outer loop
      vertex 7 7 12
      vertex 7 5.5 12
      vertex 7 7.4 10.5
    endloop
  endfacet
  facet normal 1 0 0
    outer loop
      vertex 7 2.4 10.5
      vertex 7 5.5 12
      vertex 7 2.4 12
    endloop
  endfacet
  facet normal 1 0 0
    outer loop
      vertex 7 5.5 12
      vertex 7 2.4 10.5
      vertex 7 7.4 10.5
    endloop
  endfacet
  facet normal 0 0 -1
    outer loop
      vertex 7 5.5 13
      vertex 15 7 13
      vertex 15 5.5 13
    endloop
  endfacet
  facet normal -0 0 -1
    outer loop
      vertex 15 7 13
      vertex 7 5.5 13
      vertex 7 7 13
    endloop
  endfacet
  facet normal -1 0 0
    outer loop
      vertex 15 7.4 10.5
      vertex 15 7 12
      vertex 15 7.4 12
    endloop
  endfacet
  facet normal -1 0 0
    outer loop
      vertex 15 7 12
      vertex 15 5.5 12
      vertex 15 7 13
    endloop
  endfacet
  facet normal -1 0 0
    outer loop
      vertex 15 7.4 10.5
      vertex 15 5.5 12
      vertex 15 7 12
    endloop
  endfacet
  facet normal -1 0 0
    outer loop
      vertex 15 2.4 10.5
      vertex 15 5.5 12
      vertex 15 7.4 10.5
    endloop
  endfacet
  facet normal -1 -0 0
    outer loop
      vertex 15 5.5 12
      vertex 15 2.4 10.5
      vertex 15 2.4 12
    endloop
  endfacet
  facet normal -1 -0 0
    outer loop
      vertex 15 7 13
      vertex 15 5.5 12
      vertex 15 5.5 13
    endloop
  endfacet
  facet normal 0 -1 0
    outer loop
      vertex 7 7.4 10.5
      vertex 15 7.4 12
      vertex 7 7.4 12
    endloop
  endfacet
  facet normal 0 -1 -0
    outer loop
      vertex 15 7.4 12
      vertex 7 7.4 10.5
      vertex 15 7.4 10.5
    endloop
  endfacet
  facet normal -0.471416 -0.881911 0
    outer loop
      vertex 40.0788 37.9672 10.5
      vertex 41.289 37.3203 12
      vertex 40.0788 37.9672 12
    endloop
  endfacet
  facet normal -0.471416 -0.881911 -0
    outer loop
      vertex 41.289 37.3203 12
      vertex 40.0788 37.9672 10.5
      vertex 41.289 37.3203 10.5
    endloop
  endfacet
  facet normal 0.995185 -0.0980172 0
    outer loop
      vertex 30.4 31.5 12
      vertex 30.5345 32.8656 10.5
      vertex 30.5345 32.8656 12
    endloop
  endfacet
  facet normal 0.995185 -0.0980172 0
    outer loop
      vertex 30.5345 32.8656 10.5
      vertex 30.4 31.5 12
      vertex 30.4 31.5 10.5
    endloop
  endfacet
  facet normal -0.995185 0.0980172 0
    outer loop
      vertex 44.2655 30.1344 10.5
      vertex 44.4 31.5 12
      vertex 44.4 31.5 10.5
    endloop
  endfacet
  facet normal -0.995185 0.0980172 0
    outer loop
      vertex 44.4 31.5 12
      vertex 44.2655 30.1344 10.5
      vertex 44.2655 30.1344 12
    endloop
  endfacet
  facet normal 0.0980172 0.995185 -0
    outer loop
      vertex 37.4 24.5 10.5
      vertex 36.0344 24.6345 12
      vertex 37.4 24.5 12
    endloop
  endfacet
  facet normal 0.0980172 0.995185 0
    outer loop
      vertex 36.0344 24.6345 12
      vertex 37.4 24.5 10.5
      vertex 36.0344 24.6345 10.5
    endloop
  endfacet
  facet normal 0.471416 -0.881911 0
    outer loop
      vertex 33.511 37.3203 10.5
      vertex 34.7212 37.9672 12
      vertex 33.511 37.3203 12
    endloop
  endfacet
  facet normal 0.471416 -0.881911 0
    outer loop
      vertex 34.7212 37.9672 12
      vertex 33.511 37.3203 10.5
      vertex 34.7212 37.9672 10.5
    endloop
  endfacet
  facet normal 0.956951 -0.290248 0
    outer loop
      vertex 30.5345 32.8656 12
      vertex 30.9328 34.1788 10.5
      vertex 30.9328 34.1788 12
    endloop
  endfacet
  facet normal 0.956951 -0.290248 0
    outer loop
      vertex 30.9328 34.1788 10.5
      vertex 30.5345 32.8656 12
      vertex 30.5345 32.8656 10.5
    endloop
  endfacet
  facet normal -0.881911 -0.471416 0
    outer loop
      vertex 43.8672 34.1788 10.5
      vertex 43.2203 35.389 12
      vertex 43.2203 35.389 10.5
    endloop
  endfacet
  facet normal -0.881911 -0.471416 0
    outer loop
      vertex 43.2203 35.389 12
      vertex 43.8672 34.1788 10.5
      vertex 43.8672 34.1788 12
    endloop
  endfacet
  facet normal -0.772973 -0.634439 0
    outer loop
      vertex 43.2203 35.389 10.5
      vertex 42.3497 36.4497 12
      vertex 42.3497 36.4497 10.5
    endloop
  endfacet
  facet normal -0.772973 -0.634439 0
    outer loop
      vertex 42.3497 36.4497 12
      vertex 43.2203 35.389 10.5
      vertex 43.2203 35.389 12
    endloop
  endfacet
  facet normal -0.634439 -0.772973 0
    outer loop
      vertex 41.289 37.3203 10.5
      vertex 42.3497 36.4497 12
      vertex 41.289 37.3203 12
    endloop
  endfacet
  facet normal -0.634439 -0.772973 -0
    outer loop
      vertex 42.3497 36.4497 12
      vertex 41.289 37.3203 10.5
      vertex 42.3497 36.4497 10.5
    endloop
  endfacet
  facet normal -0.290248 -0.956951 0
    outer loop
      vertex 38.7656 38.3655 10.5
      vertex 40.0788 37.9672 12
      vertex 38.7656 38.3655 12
    endloop
  endfacet
  facet normal -0.290248 -0.956951 -0
    outer loop
      vertex 40.0788 37.9672 12
      vertex 38.7656 38.3655 10.5
      vertex 40.0788 37.9672 10.5
    endloop
  endfacet
  facet normal 0.0980172 -0.995185 0
    outer loop
      vertex 36.0344 38.3655 10.5
      vertex 37.4 38.5 12
      vertex 36.0344 38.3655 12
    endloop
  endfacet
  facet normal 0.0980172 -0.995185 0
    outer loop
      vertex 37.4 38.5 12
      vertex 36.0344 38.3655 10.5
      vertex 37.4 38.5 10.5
    endloop
  endfacet
  facet normal 0.995185 0.0980172 0
    outer loop
      vertex 30.5345 30.1344 12
      vertex 30.4 31.5 10.5
      vertex 30.4 31.5 12
    endloop
  endfacet
  facet normal 0.995185 0.0980172 0
    outer loop
      vertex 30.4 31.5 10.5
      vertex 30.5345 30.1344 12
      vertex 30.5345 30.1344 10.5
    endloop
  endfacet
  facet normal 0.881911 -0.471416 0
    outer loop
      vertex 30.9328 34.1788 12
      vertex 31.5797 35.389 10.5
      vertex 31.5797 35.389 12
    endloop
  endfacet
  facet normal 0.881911 -0.471416 0
    outer loop
      vertex 31.5797 35.389 10.5
      vertex 30.9328 34.1788 12
      vertex 30.9328 34.1788 10.5
    endloop
  endfacet
  facet normal 0.634439 -0.772973 0
    outer loop
      vertex 32.4503 36.4497 10.5
      vertex 33.511 37.3203 12
      vertex 32.4503 36.4497 12
    endloop
  endfacet
  facet normal 0.634439 -0.772973 0
    outer loop
      vertex 33.511 37.3203 12
      vertex 32.4503 36.4497 10.5
      vertex 33.511 37.3203 10.5
    endloop
  endfacet
  facet normal 0.290248 -0.956951 0
    outer loop
      vertex 34.7212 37.9672 10.5
      vertex 36.0344 38.3655 12
      vertex 34.7212 37.9672 12
    endloop
  endfacet
  facet normal 0.290248 -0.956951 0
    outer loop
      vertex 36.0344 38.3655 12
      vertex 34.7212 37.9672 10.5
      vertex 36.0344 38.3655 10.5
    endloop
  endfacet
  facet normal 0.772973 -0.634439 0
    outer loop
      vertex 31.5797 35.389 12
      vertex 32.4503 36.4497 10.5
      vertex 32.4503 36.4497 12
    endloop
  endfacet
  facet normal 0.772973 -0.634439 0
    outer loop
      vertex 32.4503 36.4497 10.5
      vertex 31.5797 35.389 12
      vertex 31.5797 35.389 10.5
    endloop
  endfacet
  facet normal -0.995185 -0.0980172 0
    outer loop
      vertex 44.4 31.5 10.5
      vertex 44.2655 32.8656 12
      vertex 44.2655 32.8656 10.5
    endloop
  endfacet
  facet normal -0.995185 -0.0980172 0
    outer loop
      vertex 44.2655 32.8656 12
      vertex 44.4 31.5 10.5
      vertex 44.4 31.5 12
    endloop
  endfacet
  facet normal -0.290248 0.956951 0
    outer loop
      vertex 40.0788 25.0328 10.5
      vertex 38.7656 24.6345 12
      vertex 40.0788 25.0328 12
    endloop
  endfacet
  facet normal -0.290248 0.956951 0
    outer loop
      vertex 38.7656 24.6345 12
      vertex 40.0788 25.0328 10.5
      vertex 38.7656 24.6345 10.5
    endloop
  endfacet
  facet normal -0.471416 0.881911 0
    outer loop
      vertex 41.289 25.6797 10.5
      vertex 40.0788 25.0328 12
      vertex 41.289 25.6797 12
    endloop
  endfacet
  facet normal -0.471416 0.881911 0
    outer loop
      vertex 40.0788 25.0328 12
      vertex 41.289 25.6797 10.5
      vertex 40.0788 25.0328 10.5
    endloop
  endfacet
  facet normal -0.634439 0.772973 0
    outer loop
      vertex 42.3497 26.5503 10.5
      vertex 41.289 25.6797 12
      vertex 42.3497 26.5503 12
    endloop
  endfacet
  facet normal -0.634439 0.772973 0
    outer loop
      vertex 41.289 25.6797 12
      vertex 42.3497 26.5503 10.5
      vertex 41.289 25.6797 10.5
    endloop
  endfacet
  facet normal -0.881911 0.471416 0
    outer loop
      vertex 43.2203 27.611 10.5
      vertex 43.8672 28.8212 12
      vertex 43.8672 28.8212 10.5
    endloop
  endfacet
  facet normal -0.881911 0.471416 0
    outer loop
      vertex 43.8672 28.8212 12
      vertex 43.2203 27.611 10.5
      vertex 43.2203 27.611 12
    endloop
  endfacet
  facet normal -0.0980172 0.995185 0
    outer loop
      vertex 38.7656 24.6345 10.5
      vertex 37.4 24.5 12
      vertex 38.7656 24.6345 12
    endloop
  endfacet
  facet normal -0.0980172 0.995185 0
    outer loop
      vertex 37.4 24.5 12
      vertex 38.7656 24.6345 10.5
      vertex 37.4 24.5 10.5
    endloop
  endfacet
  facet normal 0.471416 0.881911 -0
    outer loop
      vertex 34.7212 25.0328 10.5
      vertex 33.511 25.6797 12
      vertex 34.7212 25.0328 12
    endloop
  endfacet
  facet normal 0.471416 0.881911 0
    outer loop
      vertex 33.511 25.6797 12
      vertex 34.7212 25.0328 10.5
      vertex 33.511 25.6797 10.5
    endloop
  endfacet
  facet normal 0.772973 0.634439 0
    outer loop
      vertex 32.4503 26.5503 12
      vertex 31.5797 27.611 10.5
      vertex 31.5797 27.611 12
    endloop
  endfacet
  facet normal 0.772973 0.634439 0
    outer loop
      vertex 31.5797 27.611 10.5
      vertex 32.4503 26.5503 12
      vertex 32.4503 26.5503 10.5
    endloop
  endfacet
  facet normal 0.956951 0.290248 0
    outer loop
      vertex 30.9328 28.8212 12
      vertex 30.5345 30.1344 10.5
      vertex 30.5345 30.1344 12
    endloop
  endfacet
  facet normal 0.956951 0.290248 0
    outer loop
      vertex 30.5345 30.1344 10.5
      vertex 30.9328 28.8212 12
      vertex 30.9328 28.8212 10.5
    endloop
  endfacet
  facet normal -0.956951 -0.290248 0
    outer loop
      vertex 44.2655 32.8656 10.5
      vertex 43.8672 34.1788 12
      vertex 43.8672 34.1788 10.5
    endloop
  endfacet
  facet normal -0.956951 -0.290248 0
    outer loop
      vertex 43.8672 34.1788 12
      vertex 44.2655 32.8656 10.5
      vertex 44.2655 32.8656 12
    endloop
  endfacet
  facet normal -0.0980172 -0.995185 0
    outer loop
      vertex 37.4 38.5 10.5
      vertex 38.7656 38.3655 12
      vertex 37.4 38.5 12
    endloop
  endfacet
  facet normal -0.0980172 -0.995185 -0
    outer loop
      vertex 38.7656 38.3655 12
      vertex 37.4 38.5 10.5
      vertex 38.7656 38.3655 10.5
    endloop
  endfacet
  facet normal -0.772973 0.634439 0
    outer loop
      vertex 42.3497 26.5503 10.5
      vertex 43.2203 27.611 12
      vertex 43.2203 27.611 10.5
    endloop
  endfacet
  facet normal -0.772973 0.634439 0
    outer loop
      vertex 43.2203 27.611 12
      vertex 42.3497 26.5503 10.5
      vertex 42.3497 26.5503 12
    endloop
  endfacet
  facet normal -0.956951 0.290248 0
    outer loop
      vertex 43.8672 28.8212 10.5
      vertex 44.2655 30.1344 12
      vertex 44.2655 30.1344 10.5
    endloop
  endfacet
  facet normal -0.956951 0.290248 0
    outer loop
      vertex 44.2655 30.1344 12
      vertex 43.8672 28.8212 10.5
      vertex 43.8672 28.8212 12
    endloop
  endfacet
  facet normal 0.290248 0.956951 -0
    outer loop
      vertex 36.0344 24.6345 10.5
      vertex 34.7212 25.0328 12
      vertex 36.0344 24.6345 12
    endloop
  endfacet
  facet normal 0.290248 0.956951 0
    outer loop
      vertex 34.7212 25.0328 12
      vertex 36.0344 24.6345 10.5
      vertex 34.7212 25.0328 10.5
    endloop
  endfacet
  facet normal 0.881911 0.471416 0
    outer loop
      vertex 31.5797 27.611 12
      vertex 30.9328 28.8212 10.5
      vertex 30.9328 28.8212 12
    endloop
  endfacet
  facet normal 0.881911 0.471416 0
    outer loop
      vertex 30.9328 28.8212 10.5
      vertex 31.5797 27.611 12
      vertex 31.5797 27.611 10.5
    endloop
  endfacet
  facet normal 0.634439 0.772973 -0
    outer loop
      vertex 33.511 25.6797 10.5
      vertex 32.4503 26.5503 12
      vertex 33.511 25.6797 12
    endloop
  endfacet
  facet normal 0.634439 0.772973 0
    outer loop
      vertex 32.4503 26.5503 12
      vertex 33.511 25.6797 10.5
      vertex 32.4503 26.5503 10.5
    endloop
  endfacet
endsolid OpenSCAD_Model
